<svg width="290" height="75" viewBox="0 0 290 75" fill="none" xmlns="http://www.w3.org/2000/svg">
    <mask id="path-1-outside-1_1_4278" maskUnits="userSpaceOnUse" x="0" y="0" width="290"
        height="75" fill="black">
        <rect fill="white" width="290" height="75" />
        <path fill-rule="evenodd" clip-rule="evenodd"
            d="M271 1C280.941 1 289 9.05887 289 19V55.2202C289 65.1392 280.976 73.1888 271.057 73.2201L24.0627 74C20.0293 74 16.324 72.6133 13.4098 70.2966C10.2211 73.0708 6.14458 74.2197 1.18057 73.7434C1.11711 73.7373 1.0604 73.7017 1.02792 73.6476C0.982923 73.5726 0.99403 73.4801 1.04891 73.4177L1.09808 73.3773L1.45721 73.1635C3.8108 71.7356 5.3501 70.2566 6.07509 68.7263C6.84945 67.0918 7.18759 63.533 7.08951 58.05C7.07553 57.7778 7.06884 57.5045 7.06884 57.2297V19C7.06884 9.05887 15.1277 1 25.0688 1H271Z" />
    </mask>
    <path fill-rule="evenodd" clip-rule="evenodd"
        d="M271 1C280.941 1 289 9.05887 289 19V55.2202C289 65.1392 280.976 73.1888 271.057 73.2201L24.0627 74C20.0293 74 16.324 72.6133 13.4098 70.2966C10.2211 73.0708 6.14458 74.2197 1.18057 73.7434C1.11711 73.7373 1.0604 73.7017 1.02792 73.6476C0.982923 73.5726 0.99403 73.4801 1.04891 73.4177L1.09808 73.3773L1.45721 73.1635C3.8108 71.7356 5.3501 70.2566 6.07509 68.7263C6.84945 67.0918 7.18759 63.533 7.08951 58.05C7.07553 57.7778 7.06884 57.5045 7.06884 57.2297V19C7.06884 9.05887 15.1277 1 25.0688 1H271Z"
        fill="white" />
    <path
        d="M24.0627 74V74.5H24.0643L24.0627 74ZM13.4098 70.2966L13.7209 69.9052L13.3954 69.6464L13.0816 69.9194L13.4098 70.2966ZM1.18057 73.7434L1.13281 74.2411L1.18057 73.7434ZM1.02792 73.6476L0.599164 73.9048L1.02792 73.6476ZM1.04891 73.4177L0.731448 73.0314L0.700197 73.0571L0.673481 73.0875L1.04891 73.4177ZM1.09808 73.3773L0.842286 72.9477L0.809817 72.967L0.780622 72.991L1.09808 73.3773ZM1.45721 73.1635L1.71302 73.5931L1.71655 73.591L1.45721 73.1635ZM6.07509 68.7263L6.52694 68.9403L6.07509 68.7263ZM7.08951 58.05L7.58943 58.0411L7.58928 58.0327L7.58885 58.0244L7.08951 58.05ZM288.5 19V55.2202H289.5V19H288.5ZM271.055 72.7201L24.0612 73.5L24.0643 74.5L271.058 73.7201L271.055 72.7201ZM24.0627 73.5C20.1457 73.5 16.5494 72.1537 13.7209 69.9052L13.0986 70.688C16.0986 73.0728 19.9129 74.5 24.0627 74.5V73.5ZM13.0816 69.9194C10.015 72.5874 6.08246 73.7115 1.22834 73.2457L1.13281 74.2411C6.2067 74.728 10.4272 73.5543 13.738 70.6738L13.0816 69.9194ZM1.22834 73.2457C1.32101 73.2546 1.40657 73.3068 1.45667 73.3903L0.599164 73.9048C0.71423 74.0966 0.913219 74.22 1.13281 74.2411L1.22834 73.2457ZM1.45667 73.3903C1.52731 73.508 1.50835 73.6525 1.42434 73.748L0.673481 73.0875C0.479705 73.3078 0.438541 73.6371 0.599164 73.9048L1.45667 73.3903ZM1.36637 73.804L1.41555 73.7636L0.780622 72.991L0.731448 73.0314L1.36637 73.804ZM1.35388 73.8069L1.71301 73.5931L1.20141 72.7339L0.842286 72.9477L1.35388 73.8069ZM1.71655 73.591C4.10633 72.1412 5.74133 70.5986 6.52694 68.9403L5.62323 68.5122C4.95887 69.9145 3.51528 71.3301 1.19787 72.736L1.71655 73.591ZM6.52694 68.9403C6.95294 68.0412 7.23695 66.6707 7.40723 64.8786C7.57874 63.0735 7.63865 60.7926 7.58943 58.0411L6.58959 58.0589C6.63845 60.7904 6.57833 63.0304 6.41171 64.784C6.24385 66.5507 5.9716 67.7769 5.62323 68.5122L6.52694 68.9403ZM7.58885 58.0244C7.57534 57.7611 7.56884 57.4964 7.56884 57.2297H6.56884C6.56884 57.5127 6.57573 57.7945 6.59017 58.0756L7.58885 58.0244ZM7.56884 57.2297V19H6.56884V57.2297H7.56884ZM25.0688 1.5H271V0.5H25.0688V1.5ZM7.56884 19C7.56884 9.33502 15.4039 1.5 25.0688 1.5V0.5C14.8516 0.5 6.56884 8.78273 6.56884 19H7.56884ZM288.5 55.2202C288.5 64.8637 280.699 72.6897 271.055 72.7201L271.058 73.7201C281.253 73.688 289.5 65.4147 289.5 55.2202H288.5ZM289.5 19C289.5 8.78273 281.217 0.5 271 0.5V1.5C280.665 1.5 288.5 9.33502 288.5 19H289.5Z"
        fill="#B5CADD" mask="url(#path-1-outside-1_1_4278)" />
</svg>
