<svg width="243" height="88" viewBox="0 0 243 88" fill="none" xmlns="http://www.w3.org/2000/svg">
    <path
        d="M236.178 7.5C236.178 3.49594 232.932 0.25 228.928 0.25H18.5C8.4208 0.25 0.25 8.4208 0.25 18.5V69.5C0.25 79.5792 8.42081 87.75 18.5 87.75H218.932C222.942 87.75 226.633 86.3961 229.561 84.1256C232.791 86.8732 236.894 87.9982 241.843 87.5222C241.985 87.5086 242.113 87.4288 242.187 87.3058C242.315 87.0918 242.242 86.817 242.029 86.6915C242.029 86.6912 242.029 86.691 242.028 86.6908L241.673 86.4786C241.672 86.4784 241.672 86.4782 241.672 86.478C239.337 85.0582 237.845 83.6079 237.15 82.1385C236.779 81.3537 236.503 80.0736 236.335 78.2731C236.167 76.4799 236.109 74.194 236.162 71.4127C236.172 71.1741 236.178 70.9342 236.178 70.6932V7.5Z"
        fill="#E1FEC6" stroke="#B5CADD" stroke-width="0.5" />
</svg>
