<svg width="20" height="20" viewBox="0 0 20 20" fill="none" xmlns="http://www.w3.org/2000/svg">
    <path fill-rule="evenodd" clip-rule="evenodd"
        d="M13.361 0.911584C14.5764 -0.303863 16.547 -0.30386 17.7625 0.911585L19.0884 2.23753C20.3039 3.45297 20.3039 5.4236 19.0884 6.63904L6.63904 19.0884C6.05536 19.6721 5.26373 20 4.43828 20H0.848821C0.38003 20 0 19.62 0 19.1512V15.5617C0 14.7363 0.327907 13.9446 0.911584 13.361L13.361 0.911584ZM16.5621 2.112C16.0096 1.55952 15.1138 1.55952 14.5614 2.112L12.2351 4.43828L15.5617 7.76491L17.888 5.43863C18.4405 4.88615 18.4405 3.99042 17.888 3.43794L16.5621 2.112ZM14.3613 8.96533L11.0347 5.6387L2.112 14.5614C1.84669 14.8267 1.69764 15.1865 1.69764 15.5617V18.3024H4.43828C4.81349 18.3024 5.17332 18.1533 5.43863 17.888L14.3613 8.96533Z"
        fill="#030D45" />
</svg>
