<svg width="18" height="14" viewBox="0 0 18 14" fill="none" xmlns="http://www.w3.org/2000/svg">
    <path fill-rule="evenodd" clip-rule="evenodd"
        d="M0.460145 11.8191C0.238562 11.5893 0.186703 11.2444 0.330908 10.9596L1.03241 9.57426C2.69268 6.29544 6.05563 4.2288 9.73084 4.2288H10.0757C10.1009 3.68242 10.1334 3.1363 10.1731 2.59057L10.241 1.65993C10.2961 0.90311 11.14 0.480043 11.7795 0.888625C13.8771 2.22899 15.7007 3.95608 17.153 5.97783L17.6091 6.61277C17.797 6.87425 17.797 7.22643 17.6091 7.4879L17.153 8.12284C15.7007 10.1446 13.8771 11.8717 11.7795 13.212C11.14 13.6206 10.2961 13.1976 10.241 12.4407L10.1731 11.5101C10.1256 10.8584 10.0886 10.2061 10.0619 9.55348C7.91207 9.49142 5.76486 9.92534 3.7915 10.8361L1.31431 11.9794C1.02447 12.1132 0.681728 12.0488 0.460145 11.8191ZM2.67839 9.6978L3.16291 9.47417C5.57405 8.36135 8.21958 7.89154 10.8447 8.09316C11.227 8.12252 11.5256 8.43553 11.5369 8.81879C11.5624 9.68016 11.6065 10.5411 11.6692 11.401L11.6746 11.4755C13.3181 10.3138 14.7583 8.88546 15.9348 7.24771L16.0766 7.05034L15.9348 6.85296C14.7583 5.21522 13.3181 3.78683 11.6746 2.62517L11.6692 2.69962C11.6132 3.46723 11.5721 4.23565 11.5458 5.00445C11.532 5.40844 11.2005 5.7288 10.7962 5.7288L9.73084 5.7288C6.83352 5.7288 4.16555 7.2467 2.67839 9.6978Z"
        fill="black" />
</svg>
