<svg width="53" height="53" viewBox="0 0 53 53" fill="none" xmlns="http://www.w3.org/2000/svg">
    <path
        d="M17.7272 42.6755C17.7272 42.8947 17.4815 43.0701 17.1716 43.0701C16.819 43.1029 16.5732 42.9276 16.5732 42.6755C16.5732 42.4563 16.819 42.281 17.1288 42.281C17.4494 42.2481 17.7272 42.4235 17.7272 42.6755ZM14.404 42.1824C14.3292 42.4015 14.5429 42.6536 14.8635 42.7194C15.1413 42.8289 15.4619 42.7194 15.526 42.5002C15.5901 42.281 15.3871 42.0289 15.0665 41.9303C14.7887 41.8536 14.4788 41.9632 14.404 42.1824ZM19.127 41.996C18.8171 42.0728 18.6034 42.281 18.6355 42.5331C18.6675 42.7522 18.9454 42.8947 19.2659 42.818C19.5758 42.7413 19.7895 42.5331 19.7575 42.3139C19.7254 42.1056 19.4369 41.9632 19.127 41.996ZM26.1581 0C11.3373 0 0 11.5401 0 26.7407C0 38.8946 7.45847 49.2949 18.1119 52.9553C19.4796 53.2074 19.9605 52.3416 19.9605 51.6293C19.9605 50.9498 19.9284 47.2017 19.9284 44.9003C19.9284 44.9003 12.4486 46.5442 10.8778 41.6344C10.8778 41.6344 9.65968 38.4452 7.90726 37.6233C7.90726 37.6233 5.46028 35.9027 8.07823 35.9356C8.07823 35.9356 10.7389 36.1547 12.2028 38.7631C14.5429 42.9933 18.4645 41.7769 19.9925 41.0535C20.2383 39.3001 20.9329 38.0836 21.7022 37.3603C15.729 36.6808 9.70242 35.7931 9.70242 25.2502C9.70242 22.2364 10.5145 20.724 12.2242 18.7952C11.9464 18.0828 11.0381 15.1458 12.502 11.3538C14.7353 10.6415 19.875 14.3128 19.875 14.3128C22.0121 13.6991 24.3095 13.3813 26.5855 13.3813C28.8615 13.3813 31.1589 13.6991 33.296 14.3128C33.296 14.3128 38.4357 10.6305 40.669 11.3538C42.1329 15.1567 41.2246 18.0828 40.9468 18.7952C42.6565 20.735 43.7036 22.2474 43.7036 25.2502C43.7036 35.826 37.4099 36.6698 31.4367 37.3603C32.4198 38.226 33.2532 39.8699 33.2532 42.4454C33.2532 46.1387 33.2212 50.7087 33.2212 51.6074C33.2212 52.3197 33.7127 53.1855 35.0698 52.9334C45.7552 49.2949 53 38.8946 53 26.7407C53 11.5401 40.9788 0 26.1581 0ZM10.3863 37.7986C10.2474 37.9082 10.2794 38.1603 10.4611 38.3685C10.6321 38.5439 10.8778 38.6206 11.0167 38.4781C11.1556 38.3685 11.1236 38.1165 10.9419 37.9082C10.771 37.7329 10.5252 37.6562 10.3863 37.7986ZM9.23226 36.9109C9.15746 37.0534 9.26431 37.2287 9.47802 37.3383C9.64899 37.4479 9.8627 37.4151 9.9375 37.2616C10.0123 37.1192 9.90544 36.9438 9.69173 36.8342C9.47802 36.7685 9.30706 36.8013 9.23226 36.9109ZM12.6944 40.8124C12.5234 40.9549 12.5875 41.2837 12.8333 41.4919C13.079 41.744 13.3889 41.7769 13.5278 41.6015C13.6667 41.459 13.6026 41.1303 13.3889 40.922C13.1538 40.67 12.8333 40.6371 12.6944 40.8124ZM11.4762 39.2014C11.3052 39.311 11.3052 39.596 11.4762 39.848C11.6472 40.1001 11.9357 40.2097 12.0746 40.1001C12.2456 39.9576 12.2456 39.6727 12.0746 39.4206C11.925 39.1685 11.6472 39.059 11.4762 39.2014Z"
        fill="#838D95" />
</svg>
