<svg width="18" height="18" viewBox="0 0 18 18" fill="none" xmlns="http://www.w3.org/2000/svg">
    <path
        d="M6.11185 5.67105C6.11185 6.15019 5.72343 6.5386 5.24429 6.5386C4.76516 6.5386 4.37674 6.15019 4.37674 5.67105C4.37674 5.19191 4.76516 4.8035 5.24429 4.8035C5.72343 4.8035 6.11185 5.19191 6.11185 5.67105Z"
        fill="white" />
    <path fill-rule="evenodd" clip-rule="evenodd"
        d="M8.71451 1.98395C6.87967 1.98395 4.37197 2.15233 2.8061 2.27364C2.29114 2.31354 1.88678 2.7179 1.84689 3.23286C1.72557 4.79872 1.55719 7.30643 1.55719 9.14126C1.55719 10.6127 1.66548 12.5168 1.77093 14.0209L7.63868 9.32671C9.18464 8.08994 11.3916 8.12734 12.8948 9.41577L15.7883 11.8959C15.8373 10.9397 15.8718 9.97158 15.8718 9.14126C15.8718 7.30643 15.7034 4.79872 15.5821 3.23286C15.5422 2.7179 15.1379 2.31354 14.6229 2.27364C13.057 2.15233 10.5493 1.98395 8.71451 1.98395ZM17.0119 13.2803C17.0979 11.9285 17.1732 10.3903 17.1732 9.14126C17.1732 7.25115 17.0009 4.69894 16.8796 3.13234C16.7901 1.97798 15.8778 1.06563 14.7234 0.976202C13.1568 0.854833 10.6046 0.682617 8.71451 0.682617C6.82439 0.682617 4.27218 0.854833 2.70559 0.976201C1.55122 1.06563 0.638875 1.97798 0.549444 3.13234C0.428075 4.69894 0.255859 7.25115 0.255859 9.14126C0.255859 11.0314 0.428075 13.5836 0.549444 15.1502C0.638875 16.3045 1.55122 17.2169 2.70559 17.3063C4.27218 17.4277 6.82439 17.5999 8.71451 17.5999C10.6046 17.5999 13.1568 17.4277 14.7234 17.3063C15.8778 17.2169 16.7901 16.3045 16.8796 15.1502C16.9205 14.6221 16.9672 13.982 17.0111 13.293C17.0114 13.2888 17.0117 13.2845 17.0119 13.2803ZM15.6918 13.5271L12.0479 10.4038C11.0194 9.52226 9.50938 9.49667 8.45162 10.3429L2.02024 15.488C2.01127 15.4951 2.00218 15.502 1.99296 15.5087C2.16177 15.7893 2.45878 15.982 2.8061 16.0089C4.37197 16.1302 6.87967 16.2986 8.71451 16.2986C10.5493 16.2986 13.057 16.1302 14.6229 16.0089C15.1379 15.969 15.5422 15.5646 15.5821 15.0497C15.6165 14.6056 15.6547 14.0858 15.6918 13.5271Z"
        fill="white" />
</svg>
