<svg width="12" height="12" viewBox="0 0 12 12" fill="none" xmlns="http://www.w3.org/2000/svg">
    <path
        d="M6.02891 8.08524L3.68522 10.4289C3.40147 10.7028 3.0225 10.8558 2.62815 10.8558C2.23379 10.8558 1.85483 10.7028 1.57107 10.4289C1.4319 10.2903 1.32148 10.1256 1.24613 9.94417C1.17078 9.76277 1.132 9.56828 1.132 9.37185C1.132 9.17543 1.17078 8.98093 1.24613 8.79953C1.32148 8.61813 1.4319 8.4534 1.57107 8.31478L3.91476 5.97109C4.0285 5.85735 4.0924 5.70308 4.0924 5.54222C4.0924 5.38136 4.0285 5.22709 3.91476 5.11335C3.80102 4.99961 3.64675 4.93571 3.48589 4.93571C3.32503 4.93571 3.17076 4.99961 3.05702 5.11335L0.713332 7.46308C0.241186 7.97699 -0.0141644 8.65344 0.000606905 9.35116C0.0153782 10.0489 0.299129 10.7139 0.792602 11.2074C1.28608 11.7009 1.95111 11.9846 2.64884 11.9994C3.34656 12.0142 4.02301 11.7588 4.53692 11.2867L6.88665 8.94298C7.00039 8.82924 7.06429 8.67497 7.06429 8.51411C7.06429 8.35325 7.00039 8.19899 6.88665 8.08524C6.77291 7.9715 6.61864 7.9076 6.45778 7.9076C6.29692 7.9076 6.14265 7.9715 6.02891 8.08524ZM11.2116 0.788404C10.7035 0.283428 10.0162 0 9.2998 0C8.58342 0 7.89614 0.283428 7.38801 0.788404L5.03828 3.13209C4.98196 3.18841 4.93728 3.25527 4.9068 3.32886C4.87632 3.40244 4.86064 3.48131 4.86064 3.56096C4.86064 3.64061 4.87632 3.71948 4.9068 3.79306C4.93728 3.86665 4.98196 3.93351 5.03828 3.98983C5.0946 4.04615 5.16146 4.09083 5.23505 4.12131C5.30863 4.15179 5.3875 4.16747 5.46715 4.16747C5.5468 4.16747 5.62567 4.15179 5.69925 4.12131C5.77284 4.09083 5.8397 4.04615 5.89602 3.98983L8.23971 1.64614C8.52346 1.37229 8.90243 1.21924 9.29678 1.21924C9.69114 1.21924 10.0701 1.37229 10.3539 1.64614C10.493 1.78476 10.6035 1.9495 10.6788 2.1309C10.7541 2.3123 10.7929 2.50679 10.7929 2.70322C10.7929 2.89965 10.7541 3.09414 10.6788 3.27554C10.6035 3.45694 10.493 3.62167 10.3539 3.76029L8.01017 6.10398C7.95355 6.16013 7.90862 6.22694 7.87795 6.30055C7.84728 6.37416 7.8315 6.45311 7.8315 6.53285C7.8315 6.61259 7.84728 6.69154 7.87795 6.76515C7.90862 6.83876 7.95355 6.90557 8.01017 6.96172C8.06632 7.01834 8.13313 7.06327 8.20674 7.09394C8.28035 7.12461 8.3593 7.1404 8.43904 7.1404C8.51878 7.1404 8.59773 7.12461 8.67134 7.09394C8.74495 7.06327 8.81176 7.01834 8.86791 6.96172L11.2116 4.612C11.7166 4.10386 12 3.41658 12 2.7002C12 1.98382 11.7166 1.29654 11.2116 0.788404ZM4.04765 7.95235C4.10409 8.00834 4.17103 8.05263 4.24462 8.08269C4.31822 8.11275 4.39702 8.12798 4.47652 8.12752C4.55602 8.12798 4.63482 8.11275 4.70842 8.08269C4.78201 8.05263 4.84895 8.00834 4.90539 7.95235L7.87728 4.98046C7.99102 4.86672 8.05492 4.71245 8.05492 4.55159C8.05492 4.39073 7.99102 4.23646 7.87728 4.12272C7.76354 4.00898 7.60927 3.94508 7.44841 3.94508C7.28755 3.94508 7.13328 4.00898 7.01954 4.12272L4.04765 7.09461C3.99103 7.15076 3.9461 7.21757 3.91543 7.29118C3.88476 7.36479 3.86897 7.44374 3.86897 7.52348C3.86897 7.60322 3.88476 7.68217 3.91543 7.75578C3.9461 7.82939 3.99103 7.8962 4.04765 7.95235Z"
        fill="black" />
</svg>
