<svg width="24" height="24" viewBox="0 0 24 24" fill="none" xmlns="http://www.w3.org/2000/svg">
    <path
        d="M12 5.75C12.4142 5.75 12.75 5.41421 12.75 5C12.75 4.58579 12.4142 4.25 12 4.25L6 4.25C5.0335 4.25 4.25 5.0335 4.25 6L4.25 18C4.25 18.9665 5.0335 19.75 6 19.75L12 19.75C12.4142 19.75 12.75 19.4142 12.75 19C12.75 18.5858 12.4142 18.25 12 18.25L6 18.25C5.86193 18.25 5.75 18.1381 5.75 18L5.75 6C5.75 5.86193 5.86193 5.75 6 5.75L12 5.75Z"
        fill="black" />
    <path fill-rule="evenodd" clip-rule="evenodd"
        d="M9.49692 9.63478C8.80656 9.63478 8.24692 10.1944 8.24692 10.8848L8.24692 13.1253C8.24692 13.8157 8.80657 14.3753 9.49692 14.3753L14.1095 14.3753C14.116 14.4487 14.1229 14.5221 14.13 14.5955L14.184 15.1514C14.2665 15.9995 15.1671 16.5074 15.9355 16.1392C17.5697 15.356 19.0492 14.2842 20.3026 12.9755L20.4018 12.8719C20.8661 12.3872 20.8661 11.6229 20.4018 11.1382L20.3026 11.0346C19.0491 9.72587 17.5697 8.65413 15.9355 7.87093C15.1671 7.50267 14.2665 8.01058 14.184 8.85869L14.13 9.41458C14.1229 9.48796 14.116 9.56136 14.1095 9.63478L9.49692 9.63478ZM14.8049 11.1348C15.0713 11.1348 15.3067 10.9955 15.4399 10.784C15.5048 10.681 15.5454 10.5609 15.5534 10.4315C15.5716 10.1406 15.5948 9.84995 15.623 9.55968L15.6386 9.39834C16.6747 9.93226 17.6368 10.5972 18.5016 11.3761C18.726 11.5782 18.9438 11.7879 19.1546 12.005C18.1311 13.0591 16.9435 13.9393 15.6387 14.6118L15.623 14.4504C15.5948 14.1601 15.5716 13.8695 15.5534 13.5786C15.5288 13.1833 15.201 12.8753 14.8049 12.8753L9.74692 12.8753L9.74692 11.1348L14.8049 11.1348Z"
        fill="black" />
</svg>
