<svg width="95" height="110" viewBox="0 0 95 110" fill="none" xmlns="http://www.w3.org/2000/svg">
    <path
        d="M70.346 103.081H64.6805C64.3376 103.109 64.0176 103.267 63.7843 103.523C63.551 103.78 63.4215 104.116 63.4215 104.465C63.4215 104.814 63.551 105.15 63.7843 105.406C64.0176 105.663 64.3376 105.821 64.6805 105.849H70.346C70.6889 105.821 71.0089 105.663 71.2422 105.406C71.4755 105.15 71.605 104.814 71.605 104.465C71.605 104.116 71.4755 103.78 71.2422 103.523C71.0089 103.267 70.6889 103.109 70.346 103.081ZM29.4284 103.081H23.7629C23.42 103.109 23.1 103.267 22.8667 103.523C22.6334 103.78 22.5039 104.116 22.5039 104.465C22.5039 104.814 22.6334 105.15 22.8667 105.406C23.1 105.663 23.42 105.821 23.7629 105.849H29.4284C29.7713 105.821 30.0912 105.663 30.3246 105.406C30.5579 105.15 30.6874 104.814 30.6874 104.465C30.6874 104.116 30.5579 103.78 30.3246 103.523C30.0912 103.267 29.7713 103.109 29.4284 103.081ZM60.6936 103.081H33.4152C33.0535 103.081 32.7066 103.227 32.4508 103.487C32.195 103.746 32.0513 104.098 32.0513 104.465C32.0513 104.832 32.195 105.184 32.4508 105.443C32.7066 105.703 33.0535 105.849 33.4152 105.849H44.2857V107.232H38.8709C38.5092 107.232 38.1623 107.378 37.9065 107.638C37.6507 107.897 37.507 108.249 37.507 108.616C37.507 108.983 37.6507 109.335 37.9065 109.594C38.1623 109.854 38.5092 110 38.8709 110H55.9199C56.2817 110 56.6286 109.854 56.8844 109.594C57.1402 109.335 57.2838 108.983 57.2838 108.616C57.2838 108.249 57.1402 107.897 56.8844 107.638C56.6286 107.378 56.2817 107.232 55.9199 107.232H49.8232V105.849H60.6936C61.0554 105.849 61.4023 105.703 61.6581 105.443C61.9139 105.184 62.0576 104.832 62.0576 104.465C62.0576 104.098 61.9139 103.746 61.6581 103.487C61.4023 103.227 61.0554 103.081 60.6936 103.081ZM80.928 53.3498C80.8296 53.1979 80.7027 53.0672 80.5545 52.9651C80.4063 52.863 80.2398 52.7916 80.0644 52.7548C79.8889 52.718 79.7081 52.7167 79.5322 52.7508C79.3562 52.785 79.1886 52.8539 79.039 52.9538L49.6764 72.5742C48.9889 73.0508 48.1761 73.3066 47.3435 73.3085C46.5108 73.3105 45.6968 73.0584 45.0072 72.5851L15.0656 52.7519C14.7623 52.5514 14.3928 52.4814 14.0386 52.5572C13.6843 52.633 13.3743 52.8484 13.1766 53.1562C12.979 53.4639 12.9099 53.8386 12.9847 54.198C13.0594 54.5574 13.2718 54.8719 13.5751 55.0724L43.5171 74.9049C44.6521 75.6711 45.9856 76.0785 47.3489 76.0756C48.7122 76.0727 50.044 75.6596 51.1759 74.8886L80.5381 55.2682C80.8403 55.0661 81.0512 54.7505 81.1243 54.3908C81.1974 54.0312 81.1268 53.6567 80.928 53.3498ZM31.3364 74.2022L13.6054 85.2832C13.4524 85.3783 13.3193 85.503 13.2138 85.6503C13.1083 85.7976 13.0325 85.9646 12.9907 86.1416C12.9489 86.3187 12.9419 86.5024 12.9701 86.6822C12.9984 86.862 13.0613 87.0344 13.1553 87.1894C13.2493 87.3445 13.3726 87.4793 13.518 87.586C13.6634 87.6927 13.8281 87.7693 14.0027 87.8114C14.1774 87.8534 14.3584 87.8601 14.5356 87.8311C14.7128 87.8021 14.8826 87.7379 15.0353 87.6422L32.7663 76.5612C33.0746 76.3689 33.295 76.0601 33.379 75.7029C33.463 75.3457 33.4036 74.9693 33.214 74.6564C33.0244 74.3436 32.7201 74.12 32.368 74.0348C32.0158 73.9496 31.6448 74.0098 31.3364 74.2022ZM80.5035 85.2832L62.7725 74.2022C62.4641 74.0098 62.0931 73.9496 61.7409 74.0348C61.3888 74.12 61.0845 74.3436 60.8949 74.6564C60.7052 74.9693 60.6459 75.3457 60.7299 75.7029C60.8139 76.0601 61.0343 76.3689 61.3426 76.5612L79.0736 87.6422C79.3819 87.8337 79.7526 87.8933 80.1041 87.8078C80.4557 87.7224 80.7595 87.4989 80.9489 87.1865C81.1383 86.8741 81.1977 86.4982 81.1142 86.1414C81.0307 85.7846 80.811 85.4759 80.5035 85.2832Z"
        fill="#FFCA95" />
    <path
        d="M26.9801 55.418C27.3584 56.5066 28.0601 57.4495 28.9886 58.1166C29.9171 58.7838 31.0267 59.1425 32.1646 59.1432C32.7673 59.1432 33.3657 59.041 33.9352 58.8409L74.1387 44.7464C75.5033 44.2637 76.6235 43.2514 77.2532 41.9317C77.883 40.6121 77.9709 39.0928 77.4976 37.7075L69.8593 15.486C69.4811 14.3974 68.7794 13.4545 67.8508 12.7873C66.9223 12.1201 65.8127 11.7615 64.6749 11.7607C64.0722 11.7608 63.4737 11.863 62.9042 12.0631L22.7008 26.1576C21.3361 26.6403 20.216 27.6526 19.5862 28.9723C18.9565 30.2919 18.8686 31.8111 19.3418 33.1965L26.9801 55.418ZM22.0416 30.1792C22.1952 29.8528 22.4114 29.5607 22.6774 29.3198C22.9433 29.079 23.2539 28.8941 23.5909 28.7761L63.7943 14.6817C64.0776 14.582 64.3753 14.5311 64.6751 14.531C65.2472 14.5297 65.8055 14.7087 66.2729 15.0434C66.7403 15.378 67.0936 15.8518 67.2839 16.399L74.9222 38.6205C75.1563 39.3109 75.1117 40.0671 74.7982 40.7242C74.4846 41.3813 73.9275 41.8859 73.2486 42.1278L33.0451 56.2223C32.7619 56.3219 32.4643 56.3729 32.1646 56.373C31.5925 56.3743 31.0341 56.1953 30.5667 55.8606C30.0993 55.526 29.7459 55.0522 29.5556 54.5049L21.9172 32.2835C21.7996 31.9418 21.75 31.5799 21.7713 31.2187C21.7927 30.8574 21.8845 30.5041 22.0416 30.1792Z"
        fill="#F68A3E" />
    <path
        d="M28.2333 32.6245L45.8994 37.185C46.9981 37.4695 48.1552 37.4189 49.2257 37.0395C50.2962 36.6601 51.2327 35.9688 51.9178 35.0522L62.7363 20.6135C62.8448 20.4689 62.9243 20.304 62.97 20.1282C63.0157 19.9525 63.0269 19.7693 63.0029 19.5892C62.9788 19.409 62.9201 19.2355 62.8299 19.0784C62.7397 18.9213 62.62 18.7837 62.4774 18.6736C62.3349 18.5635 62.1723 18.4829 61.9991 18.4365C61.8258 18.3901 61.6453 18.3788 61.4677 18.4031C61.2901 18.4275 61.119 18.4871 60.9642 18.5786C60.8093 18.6701 60.6737 18.7916 60.5652 18.9362L49.7467 33.3749C49.385 33.8582 48.8909 34.2227 48.3261 34.4228C47.7614 34.6229 47.151 34.6497 46.5714 34.5L28.9053 29.9395C28.5547 29.85 28.1834 29.9053 27.8728 30.0933C27.5623 30.2812 27.338 30.5864 27.249 30.9419C27.16 31.2974 27.2137 31.6742 27.3982 31.9897C27.5828 32.3051 27.8831 32.5334 28.2333 32.6245V32.6245ZM55.6246 35.5496C55.5314 35.9045 55.5808 36.2823 55.7621 36.6002C55.9434 36.9181 56.2416 37.15 56.5913 37.2449L66.8207 40.0151C67.1704 40.1088 67.5424 40.058 67.8551 39.8737C68.1679 39.6895 68.3958 39.3869 68.4888 39.0323C68.5819 38.6778 68.5325 38.3003 68.3515 37.9827C68.1704 37.6651 67.8726 37.4333 67.5233 37.3382L57.2939 34.5679C56.9442 34.4737 56.572 34.5242 56.2589 34.7082C55.9459 34.8923 55.7178 35.195 55.6246 35.5496ZM41.2325 39.8677L34.4129 48.1785C34.2967 48.3179 34.2088 48.4792 34.1543 48.6533C34.0999 48.8273 34.0798 49.0105 34.0954 49.1924C34.111 49.3743 34.162 49.5513 34.2453 49.7131C34.3286 49.875 34.4426 50.0185 34.5808 50.1355C34.7191 50.2524 34.8787 50.3405 35.0506 50.3946C35.2225 50.4487 35.4033 50.4677 35.5825 50.4507C35.7617 50.4336 35.9358 50.3807 36.0948 50.2951C36.2537 50.2095 36.3944 50.0928 36.5088 49.9518L43.3284 41.641C43.4446 41.5016 43.5325 41.3402 43.587 41.1662C43.6415 40.9922 43.6615 40.809 43.6459 40.6271C43.6303 40.4452 43.5794 40.2682 43.496 40.1063C43.4127 39.9445 43.2987 39.801 43.1605 39.684C43.0223 39.5671 42.8626 39.479 42.6907 39.4249C42.5188 39.3708 42.338 39.3518 42.1588 39.3688C41.9796 39.3859 41.8055 39.4388 41.6466 39.5244C41.4876 39.61 41.3469 39.7267 41.2325 39.8677Z"
        fill="#FFCA95" />
    <path
        d="M92.5563 97.5471H89.9568C90.443 96.7061 90.6997 95.7489 90.7004 94.7739V49.0646C90.697 47.5973 90.1213 46.1909 89.099 45.1528C88.0768 44.1147 86.6912 43.5292 85.2448 43.5241H79.5008C78.9115 44.6222 78.0832 45.5696 77.0789 46.2943H85.2448C85.9684 46.2956 86.6619 46.5879 87.1733 47.1073C87.6847 47.6266 87.9722 48.3305 87.9726 49.0646V94.7739C87.9722 95.508 87.6847 96.2119 87.1733 96.7312C86.6619 97.2506 85.9684 97.543 85.2448 97.5442H8.86523C8.14162 97.543 7.44804 97.2506 6.93665 96.7312C6.42526 96.2119 6.13782 95.508 6.13739 94.7739V49.0646C6.13782 48.3305 6.42526 47.6266 6.93666 47.1073C7.44805 46.5879 8.14163 46.2956 8.86523 46.2943H20.9539L20.0017 43.5241H8.86523C7.41882 43.5292 6.03317 44.1147 5.01095 45.1528C3.98873 46.1909 3.41301 47.5973 3.40955 49.0646V94.7739C3.41033 95.7489 3.66702 96.7061 4.15324 97.5471H1.55372C1.35969 97.5214 1.16248 97.538 0.97526 97.5958C0.788043 97.6535 0.615131 97.7512 0.46807 97.8821C0.32101 98.0131 0.203187 98.1744 0.12247 98.3552C0.0417531 98.536 0 98.7323 0 98.9308C0 99.1293 0.0417531 99.3255 0.12247 99.5064C0.203187 99.6872 0.32101 99.8485 0.46807 99.9795C0.615131 100.11 0.788043 100.208 0.97526 100.266C1.16248 100.324 1.35969 100.34 1.55372 100.314H92.5563C92.7503 100.34 92.9475 100.324 93.1347 100.266C93.322 100.208 93.4949 100.11 93.6419 99.9795C93.789 99.8485 93.9068 99.6872 93.9875 99.5064C94.0682 99.3255 94.11 99.1293 94.11 98.9308C94.11 98.7323 94.0682 98.536 93.9875 98.3552C93.9068 98.1744 93.789 98.0131 93.6419 97.8821C93.4949 97.7512 93.322 97.6535 93.1347 97.5958C92.9475 97.538 92.7503 97.5214 92.5563 97.5471ZM11.8009 4.84277C12.2055 4.84277 12.6011 4.72104 12.9375 4.49299C13.2739 4.26493 13.5362 3.94079 13.691 3.56154C13.8459 3.1823 13.8864 2.76499 13.8074 2.36239C13.7285 1.95979 13.5336 1.58998 13.2475 1.29972C12.9614 1.00946 12.5969 0.811786 12.2 0.731703C11.8031 0.651621 11.3918 0.692722 11.0179 0.84981C10.6441 1.0069 10.3246 1.27292 10.0998 1.61422C9.87498 1.95553 9.75499 2.35681 9.75499 2.76729C9.75561 3.31755 9.97136 3.84509 10.3549 4.23418C10.7384 4.62327 11.2585 4.84214 11.8009 4.84277ZM11.8009 1.72956C12.0032 1.72956 12.201 1.79042 12.3692 1.90445C12.5374 2.01848 12.6685 2.18055 12.7459 2.37017C12.8234 2.55979 12.8436 2.76845 12.8042 2.96975C12.7647 3.17105 12.6673 3.35595 12.5242 3.50108C12.3811 3.64621 12.1989 3.74505 12.0004 3.78509C11.802 3.82513 11.5963 3.80458 11.4094 3.72604C11.2225 3.64749 11.0627 3.51448 10.9503 3.34383C10.8379 3.17317 10.7779 2.97254 10.7779 2.76729C10.7782 2.49215 10.8861 2.22836 11.0778 2.0338C11.2696 1.83925 11.5297 1.72983 11.8009 1.72956ZM91.5902 38.0503C91.3204 38.0503 91.0567 38.1315 90.8325 38.2835C90.6082 38.4355 90.4333 38.6516 90.3301 38.9045C90.2269 39.1573 90.1999 39.4355 90.2525 39.7039C90.3051 39.9723 90.435 40.2188 90.6258 40.4123C90.8165 40.6058 91.0595 40.7376 91.3241 40.791C91.5887 40.8444 91.8629 40.817 92.1122 40.7123C92.3614 40.6076 92.5744 40.4302 92.7243 40.2027C92.8741 39.9751 92.9541 39.7076 92.9541 39.434C92.9537 39.0671 92.8099 38.7154 92.5542 38.456C92.2985 38.1966 91.9518 38.0507 91.5902 38.0503ZM91.5902 40.1258C91.4553 40.1258 91.3235 40.0852 91.2113 40.0092C91.0992 39.9332 91.0118 39.8251 90.9602 39.6987C90.9085 39.5723 90.895 39.4332 90.9213 39.299C90.9477 39.1648 91.0126 39.0415 91.108 38.9448C91.2034 38.848 91.3249 38.7821 91.4572 38.7554C91.5894 38.7287 91.7266 38.7424 91.8512 38.7948C91.9758 38.8472 92.0823 38.9358 92.1572 39.0496C92.2322 39.1634 92.2722 39.2971 92.2722 39.434C92.272 39.6174 92.2001 39.7932 92.0722 39.9229C91.9444 40.0526 91.771 40.1256 91.5902 40.1258ZM79.9969 17.9874C79.7271 17.9874 79.4634 18.0686 79.2391 18.2206C79.0148 18.3726 78.84 18.5887 78.7368 18.8416C78.6336 19.0944 78.6065 19.3726 78.6592 19.641C78.7118 19.9094 78.8417 20.1559 79.0324 20.3495C79.2232 20.543 79.4662 20.6747 79.7308 20.7281C79.9954 20.7815 80.2696 20.7541 80.5188 20.6494C80.7681 20.5447 80.9811 20.3673 81.1309 20.1398C81.2808 19.9122 81.3608 19.6447 81.3608 19.3711C81.3604 19.0042 81.2166 18.6525 80.9609 18.3931C80.7052 18.1337 80.3585 17.9878 79.9969 17.9874ZM79.9969 20.0629C79.862 20.0629 79.7302 20.0223 79.618 19.9463C79.5059 19.8703 79.4184 19.7622 79.3668 19.6358C79.3152 19.5094 79.3017 19.3703 79.328 19.2361C79.3543 19.1019 79.4193 18.9786 79.5147 18.8819C79.61 18.7851 79.7316 18.7192 79.8638 18.6925C79.9961 18.6658 80.1332 18.6795 80.2579 18.7319C80.3825 18.7843 80.489 18.8729 80.5639 18.9867C80.6388 19.1005 80.6788 19.2342 80.6788 19.3711C80.6787 19.5545 80.6068 19.7304 80.4789 19.8601C80.351 19.9898 80.1777 20.0627 79.9969 20.0629ZM93.6361 0C93.3663 0 93.1026 0.0811496 92.8783 0.233187C92.654 0.385224 92.4792 0.60132 92.376 0.854148C92.2728 1.10698 92.2457 1.38518 92.2984 1.65358C92.351 1.92198 92.4809 2.16853 92.6717 2.36203C92.8624 2.55554 93.1054 2.68732 93.37 2.74071C93.6346 2.7941 93.9088 2.7667 94.158 2.66197C94.4073 2.55725 94.6203 2.3799 94.7701 2.15236C94.92 1.92482 95 1.65731 95 1.38365C94.9996 1.01681 94.8558 0.665117 94.6001 0.405724C94.3444 0.146331 93.9977 0.000419309 93.6361 0ZM93.6361 2.07547C93.5012 2.07547 93.3694 2.0349 93.2572 1.95888C93.1451 1.88286 93.0576 1.77481 93.006 1.6484C92.9544 1.52198 92.9409 1.38288 92.9672 1.24868C92.9935 1.11448 93.0585 0.991208 93.1539 0.894454C93.2492 0.797701 93.3708 0.731811 93.503 0.705117C93.6353 0.678423 93.7724 0.692123 93.8971 0.744486C94.0217 0.796848 94.1282 0.885521 94.2031 0.999291C94.2781 1.11306 94.318 1.24682 94.318 1.38365C94.3179 1.56707 94.246 1.74294 94.1181 1.87264C93.9902 2.00234 93.8169 2.07529 93.6361 2.07547ZM6.34519 32.5157C6.34519 32.2421 6.2652 31.9745 6.11533 31.747C5.96546 31.5195 5.75244 31.3421 5.50322 31.2374C5.25399 31.1327 4.97976 31.1053 4.71518 31.1587C4.45061 31.212 4.20758 31.3438 4.01683 31.5373C3.82609 31.7308 3.69618 31.9774 3.64356 32.2458C3.59093 32.5142 3.61794 32.7924 3.72117 33.0452C3.8244 33.298 3.99922 33.5141 4.22352 33.6662C4.44781 33.8182 4.71151 33.8994 4.98127 33.8994C5.34288 33.8989 5.68956 33.753 5.94525 33.4936C6.20095 33.2342 6.34478 32.8826 6.34519 32.5157ZM4.29931 32.5157C4.29931 32.3789 4.33931 32.2451 4.41424 32.1314C4.48917 32.0176 4.59568 31.9289 4.72029 31.8766C4.84491 31.8242 4.98203 31.8105 5.11431 31.8372C5.2466 31.8639 5.36811 31.9298 5.46349 32.0265C5.55886 32.1233 5.62381 32.2465 5.65013 32.3807C5.67644 32.5149 5.66294 32.654 5.61132 32.7805C5.5597 32.9069 5.47229 33.0149 5.36015 33.0909C5.248 33.167 5.11615 33.2075 4.98127 33.2075C4.80046 33.2074 4.6271 33.1344 4.49925 33.0047C4.3714 32.875 4.29949 32.6991 4.29931 32.5157Z"
        fill="#F68A3E" />
    <path
        d="M29.3785 14.5748L28.7947 15.3351L29.1453 15.5592L29.5449 14.6806H29.5565L29.9254 15.553L30.3128 15.3289L29.7229 14.5803V14.5679L30.6503 14.6806V14.2565L29.7229 14.3811V14.3686L30.3066 13.5896L29.9384 13.3779L29.5633 14.2503H29.551L29.1698 13.3835L28.7947 13.6021L29.3723 14.3624V14.3748L28.4688 14.2565V14.6806L29.3785 14.5623V14.5748Z"
        fill="#FFCA95" />
    <path
        d="M48.9299 3.86449L49.7878 2.71952L49.2456 2.4082L48.6953 3.69015H48.6769L48.1177 2.4172L47.5659 2.7382L48.415 3.8555V3.87349L47.0879 3.69984V4.32248L48.4239 4.14814V4.16682L47.5659 5.28411L48.0808 5.61411L48.668 4.32248H48.6857L49.2279 5.60443L49.7966 5.27512L48.9299 4.17581V4.15713L50.2924 4.32248V3.69984L48.9299 3.88248V3.86449Z"
        fill="#FFCA95" />
</svg>
