<svg width="20" height="20" viewBox="0 0 20 20" fill="none" xmlns="http://www.w3.org/2000/svg">
    <path
        d="M10 12.5814C13.2174 12.5814 15.8478 9.76744 15.8478 6.30233C15.8478 2.81395 13.2174 0 10 0C6.78261 0 4.15217 2.81395 4.15217 6.27907C4.15217 9.76744 6.78261 12.5814 10 12.5814ZM10 1.86047C12.2609 1.86047 14.1087 3.83721 14.1087 6.27907C14.1087 8.72093 12.2609 10.6977 10 10.6977C7.73913 10.6977 5.8913 8.72093 5.8913 6.27907C5.8913 3.83721 7.73913 1.86047 10 1.86047ZM12.7174 13.186C12.4348 13.093 12.1087 13.1628 11.8913 13.3721L10 15.093L8.1087 13.3721C7.86957 13.1628 7.56522 13.093 7.28261 13.186C6.06522 13.6047 0 15.8372 0 19.0698C0 19.5814 0.391304 20 0.869565 20H19.1304C19.6087 20 20 19.5814 20 19.0698C20 15.8372 13.9348 13.6047 12.7174 13.186ZM2.19565 18.1395C3.15217 17.0465 5.45652 15.8372 7.36957 15.1395L9.43478 17.0233C9.76087 17.3256 10.2391 17.3256 10.5652 17.0233L12.6304 15.1395C14.5435 15.8605 16.8478 17.0698 17.8043 18.1395H2.19565Z"
        fill="black" />
</svg>
