<svg width="20" height="20" viewBox="0 0 20 20" fill="none" xmlns="http://www.w3.org/2000/svg">
    <path fill-rule="evenodd" clip-rule="evenodd"
        d="M20 18.586L18.5857 20L14.3429 15.758L15.7572 14.343L20 18.586ZM7.99999 14C4.69238 14 2.00001 11.309 2.00001 8C2.00001 4.692 4.69238 2 7.99999 2C11.3076 2 14 4.692 14 8C14 11.309 11.3076 14 7.99999 14V14ZM7.99999 0C3.5819 0 0 3.582 0 8C0 12.418 3.5819 16 7.99999 16C12.4181 16 16 12.418 16 8C16 3.582 12.4181 0 7.99999 0Z"
        fill="black" />
</svg>
