<svg width="20" height="20" viewBox="0 0 20 20" fill="none" xmlns="http://www.w3.org/2000/svg">
    <path fill-rule="evenodd" clip-rule="evenodd"
        d="M0.0934792 2.30213C-0.380415 0.885788 1.03179 -0.447499 2.43043 0.143789C4.57961 1.05237 8.0182 2.53824 10.4972 3.76702C13.3137 5.16307 17.0951 7.31953 19.1313 8.4999C20.2896 9.17133 20.2896 10.8287 19.1313 11.5001C17.0951 12.6805 13.3137 14.8369 10.4972 16.233C8.0182 17.4618 4.57961 18.9476 2.43043 19.8562C1.03179 20.4475 -0.380415 19.1142 0.0934789 17.6979L2.6691 10L0.0934792 2.30213ZM4.00653 10.7507L1.52323 18.1727C1.45317 18.382 1.65691 18.5522 1.84171 18.4741C3.99012 17.5658 7.39154 16.0954 9.82591 14.8887C12.5934 13.517 16.3363 11.3832 18.3733 10.2024C18.5328 10.11 18.5328 9.89004 18.3733 9.79763C16.3363 8.61676 12.5934 6.48301 9.82591 5.11127C7.39154 3.90462 3.99012 2.43418 1.84172 1.52593C1.65691 1.4478 1.45317 1.61796 1.52323 1.82734L4.00653 9.24928H8.15212C8.56829 9.24928 8.90567 9.58539 8.90567 10C8.90567 10.4146 8.56829 10.7507 8.15212 10.7507H4.00653Z"
        fill="#030D45" />
</svg>
