<svg width="20" height="20" viewBox="0 0 20 20" fill="none" xmlns="http://www.w3.org/2000/svg">
    <path fill-rule="evenodd" clip-rule="evenodd"
        d="M10.0028 7.63158C8.64378 7.63158 7.54209 8.69196 7.54209 10C7.54209 11.308 8.64378 12.3684 10.0028 12.3684C11.3618 12.3684 12.4635 11.308 12.4635 10C12.4635 8.69196 11.3618 7.63158 10.0028 7.63158ZM5.90162 10C5.90162 7.81993 7.73778 6.05263 10.0028 6.05263C12.2678 6.05263 14.104 7.81993 14.104 10C14.104 12.1801 12.2678 13.9474 10.0028 13.9474C7.73778 13.9474 5.90162 12.1801 5.90162 10Z"
        fill="#030D45" />
    <path fill-rule="evenodd" clip-rule="evenodd"
        d="M18.4013 10L18.6372 10.1317C19.9353 10.8564 20.384 12.4527 19.6424 13.7085L18.1373 16.2571C17.3866 17.5284 15.7029 17.9668 14.3886 17.2331L14.1861 17.12V17.3684C14.1861 18.8218 12.962 20 11.452 20H8.46738C6.95737 20 5.73326 18.8218 5.73326 17.3684V17.1537L5.63601 17.2093C4.32014 17.9618 2.61882 17.5281 1.86247 16.2473L0.357565 13.699C-0.378471 12.4526 0.057446 10.8685 1.33798 10.1362L1.57614 10L1.33798 9.8638C0.0574464 9.13151 -0.378472 7.5474 0.357565 6.30102L1.86247 3.75268C2.61882 2.47192 4.32014 2.0382 5.63601 2.79069L5.73326 2.84631V2.63158C5.73326 1.17819 6.95737 0 8.46738 0H11.452C12.962 0 14.1861 1.1782 14.1861 2.63158V2.87996L14.3886 2.76691C15.7029 2.03322 17.3866 2.47158 18.1373 3.74292L19.6424 6.29153C20.384 7.54727 19.9353 9.14363 18.6372 9.86832L18.4013 10ZM16.7627 10.9106C16.0361 10.5049 16.0361 9.49506 16.7627 9.08944L17.8141 8.50248C18.3334 8.21261 18.5129 7.57406 18.2162 7.07176L16.7112 4.52315C16.4108 4.01462 15.7374 3.83928 15.2117 4.13275L14.188 4.70421C13.4589 5.11123 12.5457 4.6049 12.5457 3.79366V2.63158C12.5457 2.05023 12.056 1.57895 11.452 1.57895H8.46738C7.86337 1.57895 7.37373 2.05023 7.37373 2.63158V3.77123C7.37373 4.5874 6.45047 5.09307 5.72146 4.67618L4.79807 4.14812C4.27172 3.84713 3.5912 4.02061 3.28866 4.53292L1.78375 7.08126C1.48933 7.57981 1.6637 8.21346 2.17591 8.50637L3.20531 9.09505C3.91867 9.50299 3.91867 10.497 3.20531 10.905L2.17591 11.4936C1.6637 11.7865 1.48933 12.4202 1.78375 12.9187L3.28866 15.4671C3.5912 15.9794 4.27172 16.1529 4.79807 15.8519L5.72146 15.3238C6.45047 14.9069 7.37373 15.4126 7.37373 16.2288V17.3684C7.37373 17.9498 7.86337 18.4211 8.46738 18.4211H11.452C12.056 18.4211 12.5457 17.9498 12.5457 17.3684V16.2063C12.5457 15.3951 13.4589 14.8888 14.188 15.2958L15.2117 15.8672C15.7374 16.1607 16.4108 15.9854 16.7112 15.4768L18.2162 12.9282C18.5129 12.4259 18.3334 11.7874 17.8141 11.4975L16.7627 10.9106Z"
        fill="#030D45" />
</svg>
